# xmcd
#
# Track frame offsets: 
#        150
#        18760
#        31847
#        54250
#        74790
#        95172
#        123415
#        129062
#        158857
#        169657
#        202780
#        226232
#        244775
#
# Disc length: 3725 seconds
#
# Revision: 2
# Processed by: cddbd v1.5.2PL0 Copyright (c) Steve Scherf et al.
# Submitted via: ExactAudioCopyFreeDBPlugin 1.0
#
DISCID=9f0e8b0d
DTITLE=Hedvig Hanson - What Colour Is Love?
DYEAR=2003
DGENRE=Jazz
TTITLE0=What Colour Is Love
TTITLE1=Afro White
TTITLE2=Ehk Nüüd
TTITLE3=Love Is Stronger Than Pride
TTITLE4=Someday (I'll Be Over You)
TTITLE5=Let Me Love You
TTITLE6=Andre's Dreamin'
TTITLE7=Sweet Dreamin'
TTITLE8=Tender Intro
TTITLE9=The Story Of Young Love
TTITLE10=Üksi Keset Ööd
TTITLE11=You Better Leave
TTITLE12=Pat's Lullaby
EXTD=YEAR: 2003
EXTT0=
EXTT1=
EXTT2=
EXTT3=
EXTT4=
EXTT5=
EXTT6=
EXTT7=
EXTT8=
EXTT9=
EXTT10=
EXTT11=
EXTT12=
PLAYORDER=
